<?xml version="1.0" encoding="UTF-8"?>
<svg id="Layer_1" data-name="Layer 1" xmlns="http://www.w3.org/2000/svg" version="1.1" viewBox="0 0 512 512">
  <defs>
    <style>
      .cls-1 {
        fill: #565973;
        stroke-width: 0px;
      }
    </style>
  </defs>
  <path class="cls-1" d="M256,8C119,8,8,119,8,256s111,248,248,248,248-111,248-248S393,8,256,8ZM256,104c48.6,0,88,39.4,88,88s-39.4,88-88,88-88-39.4-88-88,39.4-88,88-88ZM256,448c-58.7,0-111.3-26.6-146.5-68.2,18.8-35.4,55.6-59.8,98.5-59.8s4.8.4,7.1,1.1c13,4.2,26.6,6.9,40.9,6.9s28-2.7,40.9-6.9c2.3-.7,4.7-1.1,7.1-1.1,42.9,0,79.7,24.4,98.5,59.8-35.2,41.6-87.8,68.2-146.5,68.2Z"/>
</svg>